<svg width="13" height="13" viewBox="0 0 13 13" fill="none" xmlns="http://www.w3.org/2000/svg">
<path d="M5.65687 4.24267C6.04739 4.63319 6.68056 4.63319 7.07109 4.24266L10.6066 0.707117C10.9971 0.316588 11.6303 0.316586 12.0208 0.707113V0.707113C12.4113 1.09763 12.4113 1.73079 12.0208 2.12131L8.48528 5.65687C8.09476 6.0474 8.09476 6.68056 8.48528 7.07108L12.0208 10.6066C12.4113 10.9971 12.4113 11.6303 12.0208 12.0208V12.0208C11.6303 12.4113 10.9971 12.4113 10.6066 12.0208L7.07108 8.48528C6.68056 8.09476 6.0474 8.09476 5.65687 8.48528L2.12131 12.0208C1.73079 12.4113 1.09763 12.4113 0.707113 12.0208V12.0208C0.316586 11.6303 0.316588 10.9971 0.707116 10.6066L4.24266 7.07109C4.63319 6.68056 4.63319 6.04739 4.24267 5.65687L0.707105 2.12131C0.316582 1.73079 0.316582 1.09763 0.707105 0.707105V0.707105C1.09763 0.316582 1.73079 0.316582 2.12131 0.707106L5.65687 4.24267Z" fill="black"/>
</svg>
