<svg width="15" height="" viewBox="0 0 22 12" fill="none" xmlns="http://www.w3.org/2000/svg">
<path d="M10.602 7.78041L11.3069 8.4853C11.6974 8.87582 12.3306 8.87582 12.7211 8.48529L19.7724 1.4339C20.1629 1.04338 20.7961 1.04339 21.1866 1.43389V1.43389C21.5772 1.82442 21.5772 2.45762 21.1867 2.84815L12.7211 11.3137C12.3306 11.7042 11.6974 11.7042 11.3069 11.3137L6.3571 6.36391C5.96658 5.97339 5.96658 5.34023 6.35711 4.94971V4.94971C6.74763 4.55919 7.38079 4.55919 7.77131 4.94971L9.189 6.36741L10.602 7.78041ZM11.3089 5.65783C10.9194 5.26841 10.9194 4.637 11.3088 4.24756L14.8512 0.705154C15.2406 0.315709 15.872 0.315702 16.2614 0.70514V0.70514C16.6509 1.09458 16.6509 1.72599 16.2615 2.11543L12.7191 5.6578C12.3297 6.04723 11.6983 6.04724 11.3089 5.65783V5.65783ZM7.07048 9.9013C7.46067 10.2915 7.46066 10.9241 7.07047 11.3143V11.3143C6.68027 11.7045 6.04765 11.7045 5.65746 11.3143L0.707091 6.36391C0.316575 5.97339 0.316578 5.34023 0.707097 4.94972L0.721444 4.93537C1.10405 4.55277 1.72437 4.55278 2.10695 4.93539L2.82666 5.65514C2.82697 5.65545 2.82696 5.65596 2.82664 5.65626V5.65626C2.82631 5.65656 2.8263 5.65707 2.82661 5.65738L7.07048 9.9013Z" fill="#a3a3a5"/>
</svg>
